<svg xmlns="http://www.w3.org/2000/svg" viewBox="0 0 32 32">
  <rect width="32" height="32" rx="7" fill="#faf8f5"/>
  <!-- Homunculus silhouette, scaled to fit 32x32 -->
  <g transform="translate(7,2) scale(0.12)">
    <path d="M0 0 C3.59 1.70 5.91 3.61 8 7 C8.82 11.33 8.93 15.81 7.19 19.92 C6.87 23.48 9.38 25.91 11.44 28.63 C16 34.78 16 34.78 16 37 C16.68 36.72 17.35 36.45 18.05 36.16 C18.94 35.80 19.83 35.44 20.75 35.06 C22.07 34.52 22.07 34.52 23.42 33.97 C28.35 32.11 32.81 31.83 38.06 31.80 C38.85 31.79 39.64 31.79 40.45 31.78 C42.12 31.77 43.78 31.76 45.45 31.76 C47.96 31.75 50.48 31.72 52.99 31.69 C63.48 31.62 73.52 31.94 83 37 C83.25 36.28 83.51 35.56 83.77 34.81 C85.49 30.89 88.08 27.84 90.73 24.50 C92.33 22.05 92.33 22.05 91.23 19.46 C90.83 18.65 90.42 17.84 90 17 C89.26 12.97 89.11 9.47 91.27 5.90 C96.04 0.25 96.04 0.25 100.14 -0.27 C105.80 -0.50 109.16 0.04 113.63 3.61 C116.34 6.35 117.34 8.49 117.50 12.25 C117.37 16.81 116.10 19.33 112.97 22.61 C110.67 24.23 108.88 24.60 106.13 25.13 C101.75 26.15 99.88 27.91 97.40 31.65 C94.13 36.59 94.13 36.59 93.07 42.23 C94.24 44.46 95.54 45.44 97.56 46.94 C108.17 55.83 112.76 68.61 114 82 C114.14 85.36 114.14 88.71 114.13 92.07 C114.13 93.03 114.13 93.99 114.14 94.97 C114.14 97.00 114.13 99.02 114.13 101.05 C114.13 104.07 114.13 107.09 114.14 110.11 C114.14 116.07 114.08 122.03 114 128 C113.99 129.51 113.99 129.51 113.98 131.05 C113.95 134.01 113.88 136.97 113.80 139.93 C113.80 140.81 113.79 141.69 113.79 142.60 C113.53 150.13 110.88 155.74 105.90 161.38 C105.25 161.91 104.61 162.45 103.94 163 C103.29 163.56 102.64 164.11 101.96 164.69 C99.93 166.04 98.36 166.47 96 167 C96.03 168.28 96.03 168.28 96.06 169.58 C96.13 172.76 96.18 175.94 96.22 179.12 C96.24 180.49 96.27 181.86 96.30 183.23 C96.35 185.21 96.37 187.19 96.39 189.17 C96.42 190.95 96.42 190.95 96.45 192.77 C95.91 196.66 94.73 198.23 92 201 C87.32 204.12 82.47 203.71 77 203 C73.51 201.39 71.55 199.13 69.86 195.66 C68.95 192.83 68.77 190.66 68.80 187.70 C68.81 186.82 68.81 185.94 68.82 185.03 C68.84 183.93 68.86 182.82 68.88 181.69 C68.92 178.16 68.96 174.63 69 171 C57.12 171 45.24 171 33 171 C33.28 178.54 33.28 178.54 33.63 186.08 C33.73 191.63 33.41 195.32 29.85 199.73 C27.43 202.08 26.18 202.95 22.90 203.92 C16.77 203.57 12.56 203.32 8 199 C5.72 195.53 5.77 192.57 5.80 188.48 C5.81 187.23 5.82 185.98 5.82 184.70 C5.84 183.39 5.86 182.09 5.88 180.75 C5.88 179.43 5.89 178.12 5.90 176.76 C5.93 173.51 5.96 170.25 6 167 C5.21 166.86 4.43 166.71 3.62 166.57 C-0.65 165.64 -3.16 163.23 -6 160 C-10.45 152.86 -12.11 146.68 -12.16 138.29 C-12.17 137.63 -12.17 136.98 -12.18 136.31 C-12.19 134.15 -12.20 132.00 -12.20 129.84 C-12.21 128.73 -12.21 128.73 -12.21 127.59 C-12.23 123.66 -12.24 119.73 -12.24 115.80 C-12.25 111.77 -12.27 107.74 -12.30 103.72 C-12.32 100.59 -12.32 97.47 -12.32 94.34 C-12.33 92.86 -12.33 91.38 -12.35 89.89 C-12.48 74.43 -10.14 61.12 0.46 49.25 C2.59 47.10 4.75 45.02 7 43 C4.80 37.17 2.10 31.73 -2 27 C-4.32 26.08 -6.31 25.83 -8.78 25.55 C-12.51 24.63 -14.43 22.31 -16.74 19.36 C-18.93 15.26 -18.99 11.48 -18 7 C-13.63 -0.24 -7.96 -1.36 0 0 Z" fill="#d36934" transform="translate(13,11)"/>
  </g>
</svg>
