<?xml version="1.0" encoding="UTF-8"?>
<svg version="1.1" xmlns="http://www.w3.org/2000/svg" width="1536" height="1024">
<path d="M0 0 C506.88 0 1013.76 0 1536 0 C1536 337.92 1536 675.84 1536 1024 C1029.12 1024 522.24 1024 0 1024 C0 686.08 0 348.16 0 0 Z " fill="#F5E8DD" transform="translate(0,0)"/>
<path d="M0 0 C3.59214809 1.69504488 5.9134087 3.60783202 8 7 C8.81645293 11.32598195 8.92838247 15.80848177 7.1875 19.91796875 C6.86635139 23.48405644 9.38000182 25.90995086 11.4375 28.625 C16 34.78064636 16 34.78064636 16 37 C16.67546875 36.72285156 17.3509375 36.44570313 18.046875 36.16015625 C18.93890625 35.79792969 19.8309375 35.43570313 20.75 35.0625 C22.07257812 34.52302734 22.07257812 34.52302734 23.421875 33.97265625 C28.3496639 32.11353589 32.81252591 31.8265828 38.0625 31.796875 C38.84963379 31.79117493 39.63676758 31.78547485 40.44775391 31.77960205 C42.11538355 31.77016621 43.78303172 31.7636237 45.45068359 31.75976562 C47.96356324 31.75013958 50.47559616 31.71913719 52.98828125 31.6875 C63.47895802 31.61822195 73.51953109 31.93531794 83 37 C83.25265625 36.278125 83.5053125 35.55625 83.765625 34.8125 C85.48707452 30.89020995 88.08326841 27.83997681 90.734375 24.5 C92.33446407 22.05278859 92.33446407 22.05278859 91.234375 19.4609375 C90.82703125 18.64882813 90.4196875 17.83671875 90 17 C89.26015794 12.97355186 89.10713296 9.47350451 91.2734375 5.8984375 C96.03763041 0.25112591 96.03763041 0.25112591 100.13671875 -0.2734375 C105.80001913 -0.49892879 109.16415434 0.04246008 113.625 3.61328125 C116.34132615 6.35275791 117.34214185 8.48771407 117.5 12.25 C117.36625986 16.8120247 116.09734241 19.33320747 112.96875 22.609375 C110.66810234 24.23443565 108.87809054 24.59817403 106.125 25.125 C101.75448253 26.15296693 99.88268634 27.90504533 97.39990234 31.64990234 C94.13305029 36.58958159 94.13305029 36.58958159 93.0703125 42.2265625 C94.23884866 44.45561888 95.53863328 45.44435371 97.5625 46.9375 C108.17403153 55.83133758 112.75645036 68.60563796 114 82 C114.135466 85.3575294 114.14040417 88.71037316 114.1328125 92.0703125 C114.13376923 93.02783417 114.13472595 93.98535583 114.13571167 94.97189331 C114.13638967 96.99737616 114.13456196 99.02286122 114.13037109 101.04833984 C114.12510049 104.06743602 114.13028568 107.08637767 114.13671875 110.10546875 C114.14099055 116.07121957 114.07917152 122.03485232 114 128 C113.98809631 129.5086261 113.98809631 129.5086261 113.97595215 131.04772949 C113.94508131 134.00954225 113.87970622 136.96869893 113.8046875 139.9296875 C113.79946075 140.81125519 113.79423401 141.69282288 113.78884888 142.60110474 C113.53395015 150.13121908 110.87831774 155.74112256 105.90234375 161.375 C105.25394531 161.91125 104.60554687 162.4475 103.9375 163 C103.28652344 163.556875 102.63554688 164.11375 101.96484375 164.6875 C99.93308689 166.04469743 98.35890516 166.47477622 96 167 C96.0314209 168.27846802 96.0314209 168.27846802 96.06347656 169.58276367 C96.13185244 172.76029433 96.18189738 175.93744871 96.21972656 179.11547852 C96.2397799 180.48800023 96.26703028 181.86043717 96.30175781 183.23266602 C96.35054552 185.21072044 96.37088876 187.18941119 96.390625 189.16796875 C96.4220459 190.95110474 96.4220459 190.95110474 96.45410156 192.77026367 C95.90702537 196.66126955 94.72877364 198.22718407 92 201 C87.32043958 204.11970695 82.47445717 203.7087144 77 203 C73.51363415 201.39295136 71.54968281 199.13420799 69.86376953 195.65551758 C68.94534645 192.83197665 68.77006486 190.65945407 68.8046875 187.69921875 C68.80968262 186.81838623 68.81467773 185.93755371 68.81982422 185.0300293 C68.83803223 183.92699463 68.85624023 182.82395996 68.875 181.6875 C68.91625 178.160625 68.9575 174.63375 69 171 C57.12 171 45.24 171 33 171 C33.27530572 178.53992679 33.27530572 178.53992679 33.63061523 186.07617188 C33.7322793 191.62693638 33.41320571 195.3243944 29.8515625 199.734375 C27.43288139 202.08050486 26.1817848 202.94590011 22.90234375 203.921875 C16.76817664 203.56627111 12.55696426 203.31712404 8 199 C5.72466325 195.52881588 5.76750019 192.57497963 5.8046875 188.484375 C5.81113281 187.23398437 5.81757812 185.98359375 5.82421875 184.6953125 C5.84097656 183.39335938 5.85773437 182.09140625 5.875 180.75 C5.88402344 179.43257812 5.89304687 178.11515625 5.90234375 176.7578125 C5.92591467 173.50502538 5.95881978 170.25260411 6 167 C5.21302734 166.8568335 4.42605469 166.71366699 3.61523438 166.56616211 C-0.64769503 165.64329679 -3.16245155 163.22625371 -6 160 C-10.44993122 152.85728989 -12.11253725 146.67617568 -12.16113281 138.28881836 C-12.16609772 137.63436737 -12.17106262 136.97991638 -12.17617798 136.30563354 C-12.19072455 134.15035934 -12.19759133 131.99515889 -12.203125 129.83984375 C-12.20736607 128.7273183 -12.20736607 128.7273183 -12.21169281 127.59231758 C-12.22666017 123.66220878 -12.23590332 119.73213642 -12.24023438 115.80200195 C-12.24569514 111.77317318 -12.26967904 107.74468645 -12.29820633 103.71596432 C-12.31698267 100.5920978 -12.32204635 97.46831092 -12.32357025 94.34439278 C-12.32656695 92.86106065 -12.33449249 91.3777289 -12.34775543 89.89445305 C-12.47605558 74.43416112 -10.13922832 61.1226645 0.45703125 49.24609375 C2.58905863 47.10063627 4.74985659 45.02053694 7 43 C4.80125626 37.16854922 2.10241345 31.73295518 -2 27 C-4.31650962 26.0848357 -6.31307236 25.83398225 -8.77734375 25.55078125 C-12.50988916 24.62584469 -14.42721355 22.31109828 -16.7421875 19.35546875 C-18.92892731 15.26042495 -18.98756137 11.48260279 -18 7 C-13.62592723 -0.23984458 -7.95880997 -1.36251366 0 0 Z " fill="#EAB789" transform="translate(553,381)"/>
<path d="M0 0 C3.36386283 2.71323915 6.01014261 5.69299968 8.625 9.125 C9.594375 8.25875 10.56375 7.3925 11.5625 6.5 C23.79757511 -3.85463443 36.50912396 -8.47139627 52.58544922 -7.14990234 C62.03039557 -5.87685834 71.37777674 -1.15789962 77.37109375 6.296875 C83.23265576 14.67455116 84.75801763 22.82281412 84.73852539 32.97827148 C84.73867142 33.62302933 84.73881744 34.26778717 84.7389679 34.93208313 C84.73827817 37.03678907 84.73053042 39.14140351 84.72265625 41.24609375 C84.72078872 42.71582491 84.7193664 44.18555669 84.71836853 45.6552887 C84.7145697 49.50379181 84.70476221 53.35225656 84.69366455 57.20074463 C84.6833935 61.1357776 84.67885876 65.07081683 84.67382812 69.00585938 C84.66313732 76.71225901 84.64556216 84.41861922 84.625 92.125 C75.385 92.125 66.145 92.125 56.625 92.125 C56.58632813 85.4425 56.58632813 85.4425 56.546875 78.625 C56.51516432 75.05629923 56.47951222 71.48768588 56.44120789 67.91905212 C56.40194576 64.16102308 56.36951035 60.40322806 56.35400391 56.64501953 C56.33877781 53.02020046 56.30422906 49.39601857 56.25669098 45.77148438 C56.24193801 44.39377403 56.2339625 43.01597267 56.23311615 41.63818359 C56.22340257 33.74895099 56.02640417 27.80853927 51.625 21.125 C46.0997162 16.21363662 40.34999333 16.59218 33.16015625 16.8046875 C26.11215822 17.44329064 21.68075409 20.29905292 16.625 25.125 C13.84281619 28.96945012 13.240649 31.66826774 13.19262695 36.3840332 C13.17283279 37.62494217 13.15303864 38.86585114 13.13264465 40.1443634 C13.12587598 41.48816781 13.11942899 42.83197386 13.11328125 44.17578125 C13.09642532 45.55870654 13.07827384 46.94161659 13.05888367 48.32450867 C13.0114761 51.95267984 12.9816074 55.58078922 12.95544434 59.20916748 C12.92559182 62.91626094 12.87923795 66.62314595 12.83398438 70.33007812 C12.74650339 77.59506842 12.68648172 84.85955688 12.625 92.125 C3.385 92.125 -5.855 92.125 -15.375 92.125 C-15.43107422 85.29941406 -15.43107422 85.29941406 -15.48828125 78.3359375 C-15.51857108 75.4465773 -15.54972539 72.55727796 -15.58398438 69.66796875 C-15.63823374 65.08580654 -15.68934641 60.50376469 -15.72143555 55.92138672 C-15.74751875 52.22534241 -15.78795576 48.52970413 -15.83818626 44.8339119 C-15.85482125 43.42663259 -15.86635648 42.01928311 -15.87261391 40.6119194 C-15.88229081 38.63488299 -15.91207786 36.65797641 -15.94262695 34.68115234 C-15.95373001 33.55752289 -15.96483307 32.43389343 -15.97627258 31.2762146 C-16.59815936 26.36133137 -18.27296135 23.11952269 -21.9375 19.8125 C-26.1862565 16.87105319 -29.58041047 16.90891321 -34.625 16.875 C-35.37652344 16.854375 -36.12804687 16.83375 -36.90234375 16.8125 C-44.11392631 16.76215736 -49.04580893 19.22790551 -54.375 24.125 C-57.20257146 28.02353033 -57.76021126 30.78542177 -57.80737305 35.56762695 C-57.82716721 36.84857742 -57.84696136 38.12952789 -57.86735535 39.44929504 C-57.8741241 40.83728895 -57.88057108 42.22528446 -57.88671875 43.61328125 C-57.90357383 45.04104654 -57.9217252 46.46879706 -57.94111633 47.89653015 C-57.98853297 51.64307033 -58.01839587 55.38955064 -58.04455566 59.1362915 C-58.07965704 63.63774486 -58.13664592 68.13896835 -58.18994904 72.6402359 C-58.26836534 79.46846111 -58.31904358 86.29638744 -58.375 93.125 C-67.945 93.125 -77.515 93.125 -87.375 93.125 C-87.375 61.115 -87.375 29.105 -87.375 -3.875 C-78.135 -3.875 -68.895 -3.875 -59.375 -3.875 C-59.375 0.745 -59.375 5.365 -59.375 10.125 C-58.715 10.125 -58.055 10.125 -57.375 10.125 C-57.13265625 9.54878906 -56.8903125 8.97257812 -56.640625 8.37890625 C-52.93322804 1.77653574 -45.58526053 -3.10441363 -38.5703125 -5.48828125 C-25.44768683 -9.1279529 -11.2143077 -7.92088648 0 0 Z " fill="#D36934" transform="translate(778.375,449.875)"/>
<path d="M0 0 C3.59214809 1.69504488 5.9134087 3.60783202 8 7 C8.81645293 11.32598195 8.92838247 15.80848177 7.1875 19.91796875 C6.86635139 23.48405644 9.38000182 25.90995086 11.4375 28.625 C16 34.78064636 16 34.78064636 16 37 C16.67546875 36.72285156 17.3509375 36.44570313 18.046875 36.16015625 C18.93890625 35.79792969 19.8309375 35.43570313 20.75 35.0625 C22.07257812 34.52302734 22.07257812 34.52302734 23.421875 33.97265625 C28.3496639 32.11353589 32.81252591 31.8265828 38.0625 31.796875 C38.84963379 31.79117493 39.63676758 31.78547485 40.44775391 31.77960205 C42.11538355 31.77016621 43.78303172 31.7636237 45.45068359 31.75976562 C47.96356324 31.75013958 50.47559616 31.71913719 52.98828125 31.6875 C63.47895802 31.61822195 73.51953109 31.93531794 83 37 C83.25265625 36.278125 83.5053125 35.55625 83.765625 34.8125 C85.48707452 30.89020995 88.08326841 27.83997681 90.734375 24.5 C92.33446407 22.05278859 92.33446407 22.05278859 91.234375 19.4609375 C90.82703125 18.64882813 90.4196875 17.83671875 90 17 C89.26015794 12.97355186 89.10713296 9.47350451 91.2734375 5.8984375 C96.03763041 0.25112591 96.03763041 0.25112591 100.13671875 -0.2734375 C105.80001913 -0.49892879 109.16415434 0.04246008 113.625 3.61328125 C116.34132615 6.35275791 117.34214185 8.48771407 117.5 12.25 C117.36625986 16.8120247 116.09734241 19.33320747 112.96875 22.609375 C110.66810234 24.23443565 108.87809054 24.59817403 106.125 25.125 C101.75448253 26.15296693 99.88268634 27.90504533 97.39990234 31.64990234 C94.13305029 36.58958159 94.13305029 36.58958159 93.0703125 42.2265625 C94.23884866 44.45561888 95.53863328 45.44435371 97.5625 46.9375 C108.17403153 55.83133758 112.75645036 68.60563796 114 82 C114.135466 85.3575294 114.14040417 88.71037316 114.1328125 92.0703125 C114.13376923 93.02783417 114.13472595 93.98535583 114.13571167 94.97189331 C114.13638967 96.99737616 114.13456196 99.02286122 114.13037109 101.04833984 C114.12510049 104.06743602 114.13028568 107.08637767 114.13671875 110.10546875 C114.14099055 116.07121957 114.07917152 122.03485232 114 128 C113.98809631 129.5086261 113.98809631 129.5086261 113.97595215 131.04772949 C113.94508131 134.00954225 113.87970622 136.96869893 113.8046875 139.9296875 C113.79946075 140.81125519 113.79423401 141.69282288 113.78884888 142.60110474 C113.53395015 150.13121908 110.87831774 155.74112256 105.90234375 161.375 C105.25394531 161.91125 104.60554687 162.4475 103.9375 163 C103.28652344 163.556875 102.63554688 164.11375 101.96484375 164.6875 C99.93308689 166.04469743 98.35890516 166.47477622 96 167 C96.0314209 168.27846802 96.0314209 168.27846802 96.06347656 169.58276367 C96.13185244 172.76029433 96.18189738 175.93744871 96.21972656 179.11547852 C96.2397799 180.48800023 96.26703028 181.86043717 96.30175781 183.23266602 C96.35054552 185.21072044 96.37088876 187.18941119 96.390625 189.16796875 C96.4220459 190.95110474 96.4220459 190.95110474 96.45410156 192.77026367 C95.90702537 196.66126955 94.72877364 198.22718407 92 201 C87.32043958 204.11970695 82.47445717 203.7087144 77 203 C73.51363415 201.39295136 71.54968281 199.13420799 69.86376953 195.65551758 C68.94534645 192.83197665 68.77006486 190.65945407 68.8046875 187.69921875 C68.80968262 186.81838623 68.81467773 185.93755371 68.81982422 185.0300293 C68.83803223 183.92699463 68.85624023 182.82395996 68.875 181.6875 C68.91625 178.160625 68.9575 174.63375 69 171 C57.12 171 45.24 171 33 171 C33.27530572 178.53992679 33.27530572 178.53992679 33.63061523 186.07617188 C33.7322793 191.62693638 33.41320571 195.3243944 29.8515625 199.734375 C27.43288139 202.08050486 26.1817848 202.94590011 22.90234375 203.921875 C16.76817664 203.56627111 12.55696426 203.31712404 8 199 C5.72466325 195.52881588 5.76750019 192.57497963 5.8046875 188.484375 C5.81113281 187.23398437 5.81757812 185.98359375 5.82421875 184.6953125 C5.84097656 183.39335938 5.85773437 182.09140625 5.875 180.75 C5.88402344 179.43257812 5.89304687 178.11515625 5.90234375 176.7578125 C5.92591467 173.50502538 5.95881978 170.25260411 6 167 C5.21302734 166.8568335 4.42605469 166.71366699 3.61523438 166.56616211 C-0.64769503 165.64329679 -3.16245155 163.22625371 -6 160 C-10.44993122 152.85728989 -12.11253725 146.67617568 -12.16113281 138.28881836 C-12.16609772 137.63436737 -12.17106262 136.97991638 -12.17617798 136.30563354 C-12.19072455 134.15035934 -12.19759133 131.99515889 -12.203125 129.83984375 C-12.20736607 128.7273183 -12.20736607 128.7273183 -12.21169281 127.59231758 C-12.22666017 123.66220878 -12.23590332 119.73213642 -12.24023438 115.80200195 C-12.24569514 111.77317318 -12.26967904 107.74468645 -12.29820633 103.71596432 C-12.31698267 100.5920978 -12.32204635 97.46831092 -12.32357025 94.34439278 C-12.32656695 92.86106065 -12.33449249 91.3777289 -12.34775543 89.89445305 C-12.47605558 74.43416112 -10.13922832 61.1226645 0.45703125 49.24609375 C2.58905863 47.10063627 4.74985659 45.02053694 7 43 C4.80125626 37.16854922 2.10241345 31.73295518 -2 27 C-4.31650962 26.0848357 -6.31307236 25.83398225 -8.77734375 25.55078125 C-12.50988916 24.62584469 -14.42721355 22.31109828 -16.7421875 19.35546875 C-18.92892731 15.26042495 -18.98756137 11.48260279 -18 7 C-13.62592723 -0.23984458 -7.95880997 -1.36251366 0 0 Z M5 50 C4.08927734 50.97066406 4.08927734 50.97066406 3.16015625 51.9609375 C-15.02820062 72.32833956 -8 101.69071619 -8 127 C30.94 127 69.88 127 110 127 C112.682067 83.22365448 112.682067 83.22365448 94.4609375 48.296875 C81.9981175 36.66490967 67.15271895 35.76408158 51.00561523 35.64990234 C49.30593092 35.63342095 47.60631365 35.60623516 45.90698242 35.56787109 C29.42182282 35.19914731 16.78831745 37.36500782 5 50 Z " fill="#D36731" transform="translate(553,381)"/>
<path d="M0 0 C9.57 0 19.14 0 29 0 C29.33 19.8 29.66 39.6 30 60 C31.65 58.35 33.3 56.7 35 55 C37.140625 53.3046875 37.140625 53.3046875 39.25 51.875 C39.93578125 51.39804687 40.6215625 50.92109375 41.328125 50.4296875 C49.16171538 46.23802949 56.50414647 45.44756537 65.3125 45.5 C66.42101318 45.50572021 67.52952637 45.51144043 68.67163086 45.51733398 C80.9709106 45.78654219 89.34293736 49.00674075 98 58 C98.7425 58.7425 99.485 59.485 100.25 60.25 C105.34587134 68.25779782 107.13176563 77.27246754 107.11352539 86.64794922 C107.11341209 88.59929276 107.11341209 88.59929276 107.11329651 90.59005737 C107.10819101 91.99493448 107.10297504 93.39981119 107.09765625 94.8046875 C107.09578923 96.25342764 107.09436667 97.70216842 107.09336853 99.15090942 C107.08956573 102.94846363 107.07975474 106.74597908 107.06866455 110.54351807 C107.05840215 114.42484005 107.05386059 118.30616834 107.04882812 122.1875 C107.0381303 129.79168631 107.0205518 137.39583277 107 145 C97.76 145 88.52 145 79 145 C78.95101562 140.83375 78.90203125 136.6675 78.8515625 132.375 C78.80696948 129.03571355 78.76047703 125.69646545 78.71270752 122.35722351 C78.6629363 118.84186597 78.61644754 115.32653773 78.578125 111.81103516 C78.53391478 107.76967121 78.47434505 103.7286564 78.4140625 99.6875 C78.40251129 98.4382373 78.39096008 97.18897461 78.37905884 95.90185547 C78.22070438 86.49272751 78.00975572 78.85044309 71 72 C63.7266127 67.5941064 55.50781465 68.04211919 47.3046875 69.46875 C41.041997 71.30173258 35.24251968 74.86644644 31.41911316 80.20903015 C29.74869563 83.4942403 29.60443403 85.67748377 29.56762695 89.35083008 C29.54783279 90.6117598 29.52803864 91.87268951 29.50764465 93.17182922 C29.50087594 94.53772838 29.49442895 95.90362916 29.48828125 97.26953125 C29.47142575 98.67487653 29.45327433 100.08020682 29.43388367 101.48551941 C29.38647149 105.1728751 29.35660574 108.86016997 29.33044434 112.54772949 C29.30059418 116.31514409 29.25423955 120.08235352 29.20898438 123.84960938 C29.12149757 131.23308904 29.06147971 138.61607457 29 146 C19.43 146 9.86 146 0 146 C0 97.82 0 49.64 0 0 Z " fill="#D46A34" transform="translate(418,397)"/>
<path d="M0 0 C6.90203637 6.22683716 9.83722486 14.31860017 10.921875 23.37109375 C11.00355427 25.59314099 11.03980345 27.8172279 11.03540039 30.04077148 C11.03528709 31.9619706 11.03528709 31.9619706 11.03517151 33.92198181 C11.03006645 35.29955078 11.02485048 36.67711934 11.01953125 38.0546875 C11.0176636 39.47957815 11.01624134 40.90446944 11.01524353 42.32936096 C11.01144566 46.05949715 11.00163902 49.78959371 10.99053955 53.51971436 C10.97845667 58.00605196 10.97391018 62.49240288 10.96808624 66.97875214 C10.95842553 73.7762268 10.93924998 80.57361472 10.921875 87.37109375 C1.681875 87.37109375 -7.558125 87.37109375 -17.078125 87.37109375 C-17.12710937 83.36082031 -17.17609375 79.35054687 -17.2265625 75.21875 C-17.27117153 71.99968938 -17.31766301 68.78066805 -17.36541748 65.56165314 C-17.4151395 62.17550067 -17.46162685 58.78937787 -17.5 55.40307617 C-17.54588201 51.50812328 -17.60383894 47.61350438 -17.6640625 43.71875 C-17.67561371 42.51839615 -17.68716492 41.3180423 -17.69906616 40.08131409 C-17.83652663 32.19120151 -18.05838505 24.37004167 -22.078125 17.37109375 C-23.94457406 16.18779192 -23.94457406 16.18779192 -26.078125 15.37109375 C-26.696875 15.02046875 -27.315625 14.66984375 -27.953125 14.30859375 C-34.26736276 11.52290062 -42.98440577 11.13658154 -49.578125 13.125 C-51.82882039 14.09447183 -53.94401942 15.16831017 -56.078125 16.37109375 C-57.150625 16.94859375 -58.223125 17.52609375 -59.328125 18.12109375 C-63.80166493 21.78126278 -66.63036341 25.54638408 -67.5531311 31.36767578 C-67.75105974 34.93910356 -67.79641623 38.48169658 -67.78515625 42.05859375 C-67.80027756 43.35684082 -67.81539886 44.65508789 -67.83097839 45.99267578 C-67.8706095 49.41875007 -67.88100442 52.84429245 -67.88500977 56.27056885 C-67.89438306 59.77689273 -67.93155449 63.28291893 -67.96679688 66.7890625 C-68.03374408 73.65013669 -68.05477071 80.50918016 -68.078125 87.37109375 C-77.318125 87.37109375 -86.558125 87.37109375 -96.078125 87.37109375 C-96.078125 56.02109375 -96.078125 24.67109375 -96.078125 -7.62890625 C-86.838125 -7.62890625 -77.598125 -7.62890625 -68.078125 -7.62890625 C-67.748125 -3.66890625 -67.418125 0.29109375 -67.078125 4.37109375 C-65.799375 3.15421875 -64.520625 1.93734375 -63.203125 0.68359375 C-44.94717304 -15.48351104 -18.59800028 -14.57775586 0 0 Z " fill="#D36933" transform="translate(1105.078125,454.62890625)"/>
<path d="M0 0 C9.24 0 18.48 0 28 0 C28.02578125 4.3828125 28.0515625 8.765625 28.078125 13.28125 C28.10983674 16.79260398 28.14548889 20.30386915 28.18379211 23.81515503 C28.22305069 27.51253066 28.25548775 31.20966856 28.27099609 34.90722656 C28.28622464 38.47369583 28.32077753 42.03951781 28.36830902 45.60569763 C28.3902009 47.61728038 28.3924684 49.62904608 28.39434814 51.64074707 C28.51816992 59.43152726 28.9654748 65.45613092 34.34063721 71.5098877 C40.56900909 77.28653151 47.85065041 77.39238573 55.91015625 77.25390625 C63.1447251 76.65940944 69.35459754 72.86585267 74.25 67.5625 C77.33080365 63.05132323 78.25012544 59.3650697 78.31884766 53.92456055 C78.33871735 52.72369308 78.35858704 51.52282562 78.37905884 50.28556824 C78.39061005 48.99894791 78.40216125 47.71232758 78.4140625 46.38671875 C78.43278598 45.04863811 78.45236027 43.71056913 78.4727478 42.37251282 C78.5239507 38.86273084 78.56363936 35.35291062 78.60089111 31.84295654 C78.64100538 28.2565376 78.69195852 24.67027357 78.7421875 21.08398438 C78.83982596 14.05604919 78.91943502 7.02823468 79 0 C88.24 0 97.48 0 107 0 C107 31.35 107 62.7 107 95 C98.09 95 89.18 95 80 95 C79.67 91.37 79.34 87.74 79 84 C77.72125 85.216875 76.4425 86.43375 75.125 87.6875 C62.69425926 98.67868704 48.91959478 99.83910876 33 99 C23.17920186 98.05367041 14.41000141 93.60626193 7.6875 86.3515625 C2.33391095 78.89123702 -0.13029881 70.36135712 -0.11352539 61.30371094 C-0.11367142 60.63988403 -0.11381744 59.97605713 -0.1139679 59.29211426 C-0.11327332 57.1061675 -0.10550231 54.92030681 -0.09765625 52.734375 C-0.09579045 51.21551561 -0.09436731 49.69665562 -0.09336853 48.17779541 C-0.0895561 44.18622161 -0.0797367 40.19468438 -0.06866455 36.203125 C-0.05842303 32.1276092 -0.05386504 28.05208747 -0.04882812 23.9765625 C-0.03811327 15.98435638 -0.0205268 7.99218695 0 0 Z " fill="#D26832" transform="translate(880,447)"/>
<path d="M0 0 C3.59214809 1.69504488 5.9134087 3.60783202 8 7 C8.81645293 11.32598195 8.92838247 15.80848177 7.1875 19.91796875 C6.86635139 23.48405644 9.38000182 25.90995086 11.4375 28.625 C16 34.78064636 16 34.78064636 16 37 C16.67546875 36.72285156 17.3509375 36.44570313 18.046875 36.16015625 C18.93890625 35.79792969 19.8309375 35.43570313 20.75 35.0625 C22.07257812 34.52302734 22.07257812 34.52302734 23.421875 33.97265625 C28.3496639 32.11353589 32.81252591 31.8265828 38.0625 31.796875 C38.84963379 31.79117493 39.63676758 31.78547485 40.44775391 31.77960205 C42.11538355 31.77016621 43.78303172 31.7636237 45.45068359 31.75976562 C47.96356324 31.75013958 50.47559616 31.71913719 52.98828125 31.6875 C63.47895802 31.61822195 73.51953109 31.93531794 83 37 C83.25265625 36.278125 83.5053125 35.55625 83.765625 34.8125 C85.48707452 30.89020995 88.08326841 27.83997681 90.734375 24.5 C92.33446407 22.05278859 92.33446407 22.05278859 91.234375 19.4609375 C90.82703125 18.64882813 90.4196875 17.83671875 90 17 C89.26015794 12.97355186 89.10713296 9.47350451 91.2734375 5.8984375 C96.03763041 0.25112591 96.03763041 0.25112591 100.13671875 -0.2734375 C105.80001913 -0.49892879 109.16415434 0.04246008 113.625 3.61328125 C116.34132615 6.35275791 117.34214185 8.48771407 117.5 12.25 C117.36625986 16.8120247 116.09734241 19.33320747 112.96875 22.609375 C110.66810234 24.23443565 108.87809054 24.59817403 106.125 25.125 C101.75448253 26.15296693 99.88268634 27.90504533 97.39990234 31.64990234 C94.13305029 36.58958159 94.13305029 36.58958159 93.0703125 42.2265625 C94.23884866 44.45561888 95.53863328 45.44435371 97.5625 46.9375 C108.15172766 55.81264405 112.79577729 68.61582106 114 82 C114.12706163 85.61550919 114.11700561 89.22638259 114.09765625 92.84375 C114.09553383 94.35829773 114.09553383 94.35829773 114.09336853 95.90344238 C114.08780781 99.10232611 114.0752627 102.30113772 114.0625 105.5 C114.05747992 107.67968648 114.0529179 109.85937407 114.04882812 112.0390625 C114.03785128 117.35939926 114.02115268 122.67969448 114 128 C113.34 127.34 112.68 126.68 112 126 C111.34 126.66 110.68 127.32 110 128 C107.89543724 128.24609566 107.89543724 128.24609566 105.24179077 128.24050903 C104.23775711 128.24325836 103.23372345 128.24600769 102.19926453 128.24884033 C100.54094353 128.2380545 100.54094353 128.2380545 98.84912109 128.22705078 C97.68815414 128.22734283 96.52718719 128.22763489 95.33103943 128.22793579 C91.47843046 128.22653804 87.62601285 128.21095575 83.7734375 128.1953125 C81.1082832 128.19158395 78.44313963 128.1886379 75.77798462 128.18673706 C69.47043425 128.18051488 63.162953 128.16409413 56.85543311 128.14403808 C49.67536378 128.12170199 42.4952912 128.11069143 35.3151958 128.10064721 C20.54342847 128.07972851 5.77171544 128.04453823 -9 128 C-9.33 125.69 -9.66 123.38 -10 121 C-10.33 128.92 -10.66 136.84 -11 145 C-11.33 145 -11.66 145 -12 145 C-12.06988883 136.21080618 -12.12300682 127.42170983 -12.15543652 118.63229752 C-12.17101078 114.54984892 -12.1920959 110.46759215 -12.22631836 106.38525391 C-12.25920907 102.43651222 -12.27691475 98.48795362 -12.28463173 94.53908539 C-12.29012248 93.04178745 -12.30084251 91.54449812 -12.31719017 90.04727936 C-12.47979887 74.51964472 -10.19004586 61.17962215 0.45703125 49.24609375 C2.58905863 47.10063627 4.74985659 45.02053694 7 43 C4.80125626 37.16854922 2.10241345 31.73295518 -2 27 C-4.31650962 26.0848357 -6.31307236 25.83398225 -8.77734375 25.55078125 C-12.50988916 24.62584469 -14.42721355 22.31109828 -16.7421875 19.35546875 C-18.92892731 15.26042495 -18.98756137 11.48260279 -18 7 C-13.62592723 -0.23984458 -7.95880997 -1.36251366 0 0 Z M5 50 C4.08927734 50.97066406 4.08927734 50.97066406 3.16015625 51.9609375 C-15.02820062 72.32833956 -8 101.69071619 -8 127 C30.94 127 69.88 127 110 127 C112.682067 83.22365448 112.682067 83.22365448 94.4609375 48.296875 C81.9981175 36.66490967 67.15271895 35.76408158 51.00561523 35.64990234 C49.30593092 35.63342095 47.60631365 35.60623516 45.90698242 35.56787109 C29.42182282 35.19914731 16.78831745 37.36500782 5 50 Z " fill="#D36D38" transform="translate(553,381)"/>
<path d="M0 0 C6.73913667 3.82219692 11.35072354 9.05217061 13.8125 16.4375 C13.874375 17.283125 13.93625 18.12875 14 19 C14.061875 19.66773438 14.12375 20.33546875 14.1875 21.0234375 C14.56419488 27.92166252 12.74560194 32.60877385 8.421875 37.94921875 C3.64728751 43.07867423 -0.49486112 45.6866915 -7.49609375 46.3125 C-16.27627809 46.59095976 -22.33267822 46.19396258 -28.92578125 40.26953125 C-34.02939113 34.97572472 -36.78722821 29.6543828 -37.125 22.265625 C-36.79155046 14.72132919 -34.53681263 9.62563669 -29.2890625 4.24609375 C-21.19833736 -3.08502183 -10.10192733 -4.30573952 0 0 Z " fill="#554432" transform="translate(615,439)"/>
<path d="M0 0 C0.66 0.66 1.32 1.32 2 2 C1.60167969 2.44730469 1.20335937 2.89460938 0.79296875 3.35546875 C-17.81001668 24.583693 -11.43760841 50.88042032 -12 79 C26.94 79 65.88 79 106 79 C106 79.33 106 79.66 106 80 C66.73 80 27.46 80 -13 80 C-13.33 77.69 -13.66 75.38 -14 73 C-14.33 80.92 -14.66 88.84 -15 97 C-15.33 97 -15.66 97 -16 97 C-16.06988883 88.21080618 -16.12300682 79.42170983 -16.15543652 70.63229752 C-16.17101078 66.54984892 -16.1920959 62.46759215 -16.22631836 58.38525391 C-16.25920907 54.43651222 -16.27691475 50.48795362 -16.28463173 46.53908539 C-16.29012248 45.04178745 -16.30084251 43.54449812 -16.31719017 42.04727936 C-16.4379733 30.51360142 -15.69082005 19.52432746 -9.625 9.4375 C-8.77808594 7.98150391 -8.77808594 7.98150391 -7.9140625 6.49609375 C-5.8488932 3.8029444 -3.9820766 2.5608528 -1 1 C-0.67 0.67 -0.34 0.34 0 0 Z " fill="#DA824F" transform="translate(557,429)"/>
<path d="M0 0 C12.61631878 10.19010363 20.80270595 22.29999611 22.78981018 38.6401062 C23.18139613 43.03661435 23.12124845 47.43318293 23.09765625 51.84375 C23.0962413 52.85344849 23.09482635 53.86314697 23.09336853 54.90344238 C23.08780781 58.10232611 23.0752627 61.30113772 23.0625 64.5 C23.05747992 66.67968648 23.0529179 68.85937407 23.04882812 71.0390625 C23.03785128 76.35939926 23.02115268 81.67969448 23 87 C22.34 86.34 21.68 85.68 21 85 C20.01 85.495 20.01 85.495 19 86 C18.99635437 85.41499222 18.99270874 84.82998444 18.98895264 84.22724915 C18.94678309 78.07746202 18.87720264 71.92839752 18.79248047 65.77905273 C18.76444628 63.49136624 18.7431455 61.20358604 18.72900391 58.91577148 C18.59445442 38.37006553 16.92211338 22.46383913 1.79296875 7.359375 C-0.27870975 4.63324469 -0.39686472 3.34077169 0 0 Z " fill="#D57948" transform="translate(644,422)"/>
<path d="M0 0 C5.15950168 -0.02480163 10.31896831 -0.04290809 15.47851562 -0.05493164 C17.23210251 -0.05994651 18.98568524 -0.06676002 20.73925781 -0.07543945 C23.2662865 -0.08763 25.79325968 -0.09325688 28.3203125 -0.09765625 C29.09867462 -0.10281754 29.87703674 -0.10797882 30.6789856 -0.11329651 C34.9003949 -0.1137272 38.84091388 0.1641336 43 1 C43 1.66 43 2.32 43 3 C40.6479994 4.1760003 39.26265599 4.12084541 36.64208984 4.11352539 C35.29091568 4.11341209 35.29091568 4.11341209 33.91244507 4.11329651 C32.93844757 4.10813522 31.96445007 4.10297394 30.9609375 4.09765625 C29.96494537 4.0962413 28.96895325 4.09482635 27.94277954 4.09336853 C24.75348947 4.08775936 21.56426894 4.0752053 18.375 4.0625 C16.21614685 4.05748618 14.05729259 4.05292307 11.8984375 4.04882812 C6.5989345 4.03778695 1.29947222 4.02103988 -4 4 C-3.67 3.34 -3.34 2.68 -3 2 C-2.01 2 -1.02 2 0 2 C0 1.34 0 0.68 0 0 Z " fill="#D67944" transform="translate(583,413)"/>
<path d="M0 0 C-0.33 0.99 -0.66 1.98 -1 3 C-4.63 2.67 -8.26 2.34 -12 2 C-6.88275349 -0.55862325 -5.57740723 -1.09123185 0 0 Z " fill="#D57844" transform="translate(632,416)"/>
<path d="M0 0 C-0.99 0.33 -1.98 0.66 -3 1 C-2.34 1.66 -1.68 2.32 -1 3 C-3.64 3.33 -6.28 3.66 -9 4 C-9.33 3.01 -9.66 2.02 -10 1 C-3.71428571 -1.42857143 -3.71428571 -1.42857143 0 0 Z " fill="#D67F4B" transform="translate(583,415)"/>
<path d="M0 0 C2.5761382 3.8642073 3.18466897 5.62817334 2.5625 10.25 C2.376875 11.1575 2.19125 12.065 2 13 C1.67 13 1.34 13 1 13 C0.67 11.35 0.34 9.7 0 8 C-0.33 8 -0.66 8 -1 8 C-0.67 5.36 -0.34 2.72 0 0 Z " fill="#DA8354" transform="translate(544,445)"/>
</svg>
