<svg width="1095" height="257" viewBox="0 0 1095 257" fill="none" xmlns="http://www.w3.org/2000/svg">
<path d="M72 237L72 56M72 157C72 123.667 88.6667 107 122 107C155.333 107 172 123.667 172 157V237" stroke="#2A1F16" stroke-width="28" stroke-linecap="round" stroke-linejoin="round"/>
<path d="M310 237C345.899 237 375 207.899 375 172C375 136.101 345.899 107 310 107C274.101 107 245 136.101 245 172C245 207.899 274.101 237 310 237Z" stroke="#2A1F16" stroke-width="28" stroke-linecap="round" stroke-linejoin="round"/>
<path d="M448 237V157C448 123.667 464.667 107 498 107C531.333 107 548 123.667 548 157M548 157V237M548 157C548 123.667 564.667 107 598 107C631.333 107 648 123.667 648 157V237" stroke="#2A1F16" stroke-width="28" stroke-linecap="round" stroke-linejoin="round"/>
<path d="M721 117V187C721 220.333 742.667 237 786 237C829.333 237 851 220.333 851 187V117" stroke="#2A1F16" stroke-width="28" stroke-linecap="round" stroke-linejoin="round"/>
<path d="M924 237V157C924 123.667 940.667 107 974 107C1007.33 107 1024 123.667 1024 157V237" stroke="#2A1F16" stroke-width="28" stroke-linecap="round" stroke-linejoin="round"/>
<path d="M786 30C802.569 30 816 43.4315 816 60C816 76.5685 802.569 90 786 90C769.431 90 756 76.5685 756 60C756 43.4315 769.431 30 786 30Z" stroke="#C97854" stroke-width="20"/>
</svg>
